<svg width="211" height="228" viewBox="0 0 211 228" fill="none" xmlns="http://www.w3.org/2000/svg">
<g clip-path="url(#clip0_7_7)">
<path d="M78.2009 0.0253704L63.3384 1.22455L188.98 131.237L117.953 226.563L132.87 225.61C134.956 225.478 136.89 224.472 138.179 222.841L209.456 132.595C211.739 129.703 211.462 125.594 208.811 123.028L83.931 2.07102C82.4179 0.598509 80.3227 -0.150978 78.2009 0.0253704Z" fill="url(#paint0_linear_7_7)"/>
<path d="M39.4599 179.274V145.989C39.4599 143.943 38.681 141.968 37.2753 140.469L2.18745 102.925C-0.301558 100.262 -0.713424 96.2938 1.19363 93.1901L55.1283 5.16593C57.9217 0.59852 64.3502 -0.133327 68.1375 3.67579L191.72 128.054C194.602 130.955 194.88 135.505 192.373 138.723L126.388 223.379C123.245 227.417 117.148 227.655 113.683 223.882L78.4426 185.543C76.4819 183.41 73.5273 182.449 70.6623 183.022L49.3982 187.263C44.259 188.295 39.4599 184.433 39.4599 179.274Z" fill="url(#paint1_linear_7_7)"/>
</g>
<defs>
<linearGradient id="paint0_linear_7_7" x1="94.6454" y1="4.29088" x2="160.042" y2="170.746" gradientUnits="userSpaceOnUse">
<stop stop-color="#6A6D9E"/>
<stop offset="0.6935" stop-color="#5056B9"/>
<stop offset="0.9774" stop-color="#6A6D9E"/>
</linearGradient>
<linearGradient id="paint1_linear_7_7" x1="149.926" y1="-103.737" x2="-27.5483" y2="80.9935" gradientUnits="userSpaceOnUse">
<stop offset="0.185033" stop-color="#303031"/>
<stop offset="1" stop-color="#6A6D9E"/>
</linearGradient>
<clipPath id="clip0_7_7">
<rect width="211" height="228" fill="white"/>
</clipPath>
</defs>
</svg>
