<?xml version="1.0" encoding="UTF-8"?>
<!DOCTYPE svg PUBLIC "-//W3C//DTD SVG 1.1//EN" "http://www.w3.org/Graphics/SVG/1.1/DTD/svg11.dtd">
<!-- Creator: CorelDRAW 2017 -->
<svg xmlns="http://www.w3.org/2000/svg" xml:space="preserve" width="111mm" height="126mm" version="1.1" style="shape-rendering:geometricPrecision; text-rendering:geometricPrecision; image-rendering:optimizeQuality; fill-rule:evenodd; clip-rule:evenodd"
viewBox="0 0 11100 12600"
 xmlns:xlink="http://www.w3.org/1999/xlink">
 <defs>
  <style type="text/css">
   <![CDATA[
    .str0 {stroke:#FEFEFE;stroke-width:7.62}
    .fil1 {fill:#FEFEFE}
    .fil0 {fill:url(#id0);fill-rule:nonzero}
   ]]>
  </style>
  <linearGradient id="id0" gradientUnits="userSpaceOnUse" x1="10510" y1="4442" x2="-768" y2="7837">
   <stop offset="0" style="stop-opacity:1; stop-color:#5F43B5"/>
   <stop offset="1" style="stop-opacity:1; stop-color:#AFA1DA"/>
   <stop offset="1" style="stop-opacity:1; stop-color:white"/>
  </linearGradient>
 </defs>
 <g id="Слой_x0020_1">
  <metadata id="CorelCorpID_0Corel-Layer"/>
  <path class="fil0" d="M5261 559c250,-118 541,-47 768,93 1460,856 2929,1698 4395,2544 239,136 380,399 360,673 -5,1722 1,3446 -10,5168 38,401 -340,615 -636,789 -1386,792 -2773,1580 -4151,2384 -227,135 -525,220 -759,53 -1359,-770 -2697,-1577 -4058,-2345 -344,-204 -823,-427 -822,-892 -19,-1591 -4,-3182 -19,-4774 8,-232 -10,-471 53,-697 166,-293 481,-449 761,-614 1382,-775 2730,-1616 4117,-2381z"/>
  <path class="fil1 str0" d="M4059 5800l0 -1636 1476 -807 1529 802 0 1589 1403 758 1 1603 -1437 963 -1533 -793 -1373 771 -1476 -757 0 -1751 1411 -743zm1610 993c425,193 934,470 1351,676 -9,479 -12,928 -14,1397 -420,-211 -923,-479 -1337,-703 1,-458 1,-913 0,-1370zm-2838 1374l3 -1406 1228 651 -2 1421 -1229 -666zm1368 -2416l-1 -1441 1226 663 0 1444 -1225 -666zm2556 -1597l-1246 -651 -1205 661 1277 670 1174 -679zm1490 2430l-1246 -651 -1205 661 1277 670 1174 -679zm-2860 9l-1246 -651 -1205 661 1277 670 1174 -679z"/>
 </g>
</svg>
