<?xml version="1.0" encoding="UTF-8" standalone="no"?>
<svg
   version="1.1"
   width="1417.3228pt"
   height="1417.3228pt"
   id="svg18"
   viewBox="0 0 1417.3228 1417.3228"
   sodipodi:docname="Alena11.cdr"
   xmlns:inkscape="http://www.inkscape.org/namespaces/inkscape"
   xmlns:sodipodi="http://sodipodi.sourceforge.net/DTD/sodipodi-0.dtd"
   xmlns="http://www.w3.org/2000/svg"
   xmlns:svg="http://www.w3.org/2000/svg">
  <defs
     id="defs22" />
  <sodipodi:namedview
     id="namedview20"
     pagecolor="#ffffff"
     bordercolor="#000000"
     borderopacity="0.25"
     inkscape:showpageshadow="2"
     inkscape:pageopacity="0.0"
     inkscape:pagecheckerboard="0"
     inkscape:deskcolor="#d1d1d1"
     inkscape:document-units="pt" />
  <path
     d="m 370.5037,315.6832 c 7.5194,-3.5519 16.2491,-1.3978 23.0508,2.7968 43.833,25.6954 87.9305,50.9742 131.952,76.3676 7.1798,4.081 11.4119,11.9795 10.8088,20.2155 -0.1532,51.694 0.0364,103.4619 -0.3031,155.1549 1.1333,12.0535 -10.2026,18.4781 -19.0823,23.6924 -41.605,23.7695 -83.2464,47.4234 -124.6233,71.57 -6.8017,4.0435 -15.7563,6.6132 -22.7862,1.5874 -40.8102,-23.1258 -80.9756,-47.3484 -121.8244,-70.3982 -10.3172,-6.1215 -24.7132,-12.8097 -24.6757,-26.7901 -0.5667,-47.7651 -0.1136,-95.527 -0.5667,-143.3274 0.2271,-6.9538 -0.3031,-14.1337 1.5864,-20.9354 4.9893,-8.8036 14.4357,-13.4898 22.8612,-18.4385 41.4904,-23.2779 81.9622,-48.5202 123.6025,-71.495 z"
     style="fill:#7358c6;fill-rule:evenodd;stroke:#7358c6;stroke-width:0.8162;stroke-linecap:butt;stroke-linejoin:miter;stroke-dasharray:none"
     id="path2" />
  <path
     d="m 333.3171,467.5819 0.005,-49.118 44.3,-24.2269 45.897,24.077 0.002,47.7072 42.131,22.7659 0.0332,48.1229 -43.1539,28.9153 -46.0373,-23.8135 -41.2077,23.144 -44.3246,-22.7134 v -52.5606 z"
     style="fill:#ffffff;fill-rule:evenodd;stroke:#ffffff;stroke-width:0.216;stroke-linecap:butt;stroke-linejoin:miter;stroke-dasharray:none"
     id="path4" />
  <path
     d="m 373.0958,491.4071 -37.4115,-19.5557 -36.1786,19.8481 38.3541,20.1042 z"
     style="fill:#7358c6;fill-rule:evenodd;stroke:#7358c6;stroke-width:0.216;stroke-linecap:butt;stroke-linejoin:miter;stroke-dasharray:none"
     id="path6" />
  <path
     d="m 458.9676,491.1233 -37.4115,-19.5557 -36.1786,19.8481 38.3541,20.1041 z"
     style="fill:#7358c6;fill-rule:evenodd;stroke:#7358c6;stroke-width:0.216;stroke-linecap:butt;stroke-linejoin:miter;stroke-dasharray:none"
     id="path8" />
  <path
     d="m 414.2349,418.1726 -37.4115,-19.5557 -36.1786,19.8481 38.3541,20.1041 z"
     style="fill:#7358c6;fill-rule:evenodd;stroke:#7358c6;stroke-width:0.216;stroke-linecap:butt;stroke-linejoin:miter;stroke-dasharray:none"
     id="path10" />
  <path
     d="m 337.4988,466.1166 -0.0385,-43.2632 36.8095,19.906 0.0139,43.3488 z"
     style="fill:#7358c6;fill-rule:evenodd;stroke:#7358c6;stroke-width:0.216;stroke-linecap:butt;stroke-linejoin:miter;stroke-dasharray:none"
     id="path12" />
  <path
     d="m 296.4369,538.6613 0.09,-42.2177 36.8706,19.5503 -0.075,42.6612 z"
     style="fill:#7358c6;fill-rule:evenodd;stroke:#7358c6;stroke-width:0.216;stroke-linecap:butt;stroke-linejoin:miter;stroke-dasharray:none"
     id="path14" />
  <path
     d="m 381.651,497.4033 c 12.7733,5.7809 28.0305,14.1026 40.5756,20.2991 -0.2763,14.3778 -0.3524,27.8484 -0.4273,41.9435 -12.6223,-6.3486 -27.7189,-14.3907 -40.1504,-21.1174 0.0374,-13.7555 0.0407,-27.4082 0.002,-41.1252 z"
     style="fill:#7358c6;fill-rule:evenodd;stroke:#7358c6;stroke-width:0.8162;stroke-linecap:butt;stroke-linejoin:miter;stroke-dasharray:none"
     id="path16" />
</svg>
