<?xml version="1.0" encoding="UTF-8"?>
<!DOCTYPE svg PUBLIC "-//W3C//DTD SVG 1.1//EN" "http://www.w3.org/Graphics/SVG/1.1/DTD/svg11.dtd">
<!-- Creator: CorelDRAW 2017 -->
<svg xmlns="http://www.w3.org/2000/svg" xml:space="preserve" width="140mm" height="47mm" version="1.1" style="shape-rendering:geometricPrecision; text-rendering:geometricPrecision; image-rendering:optimizeQuality; fill-rule:evenodd; clip-rule:evenodd"
viewBox="0 0 14000 4700"
 xmlns:xlink="http://www.w3.org/1999/xlink">
 <defs>
  <style type="text/css">
   <![CDATA[
    .str0 {stroke:#2B2A29;stroke-width:20}
    .str1 {stroke:#FEFEFE;stroke-width:7.62}
    .fil2 {fill:#FEFEFE}
    .fil0 {fill:#2B2A29}
    .fil1 {fill:url(#id0);fill-rule:nonzero}
   ]]>
  </style>
  <linearGradient id="id0" gradientUnits="userSpaceOnUse" x1="3996" y1="1616" x2="-253" y2="2895">
   <stop offset="0" style="stop-opacity:1; stop-color:#5F43B5"/>
   <stop offset="1" style="stop-opacity:1; stop-color:#AFA1DA"/>
   <stop offset="1" style="stop-opacity:1; stop-color:white"/>
  </linearGradient>
 </defs>
 <g id="Слой_x0020_1">
  <metadata id="CorelCorpID_0Corel-Layer"/>
  <path class="fil0 str0" d="M5868 2125c-322,595 -524,965 -607,1110 -90,128 -203,178 -353,119 -58,-22 -92,-77 -95,-138 -3,-64 26,-132 55,-188 78,-123 137,-219 176,-289 -200,-340 -331,-570 -394,-690 -50,-88 -157,-284 -46,-360 58,-40 136,-63 197,-72 51,-8 74,1 136,55 35,31 82,131 107,177 78,143 154,287 228,432 3,6 6,12 9,18 109,-174 209,-349 312,-526 63,-108 121,-168 249,-131 62,18 168,73 175,144 5,55 -22,111 -45,158 -4,7 -7,15 -11,22 -28,54 -57,107 -91,157l-1 2zm6141 -854l112 0c90,0 163,73 163,163l0 1224c0,90 -73,163 -163,163l-112 0c-90,0 -163,-73 -163,-163l0 -1224c0,-90 73,-163 163,-163zm-5223 375c410,0 742,273 742,610 0,337 -332,610 -742,610 -410,0 -742,-273 -742,-610 0,-337 332,-610 742,-610zm2249 -210c0,338 0,587 0,748 1,112 9,266 -117,311 -116,41 -426,38 -557,26 -111,-10 -171,-101 -195,-199 -16,-65 -22,-133 -22,-200 0,-214 1,-427 0,-641 0,-93 1,-160 -94,-207 -47,-24 -97,-20 -148,-18 -57,1 -104,4 -148,46 -45,43 -50,105 -50,163 2,118 0,237 1,356 0,58 0,115 0,173 -10,304 19,497 87,580 113,138 253,248 434,274 20,3 47,4 68,6 202,16 434,26 635,-7 16,-3 48,-14 65,-19 139,-44 313,-118 392,-248 60,-73 89,-167 87,-282 0,-416 0,-656 0,-722 0,-51 1,-102 0,-153 -2,-96 -71,-164 -167,-166 -32,-1 -67,-1 -99,0 -65,1 -123,26 -154,87 -14,28 -18,57 -19,88l0 3zm658 1007c0,64 0,122 0,181 -3,47 4,84 19,110 19,32 41,54 67,67 31,15 61,22 92,19 37,0 70,0 98,0 35,-2 63,-10 83,-23 41,-21 68,-64 79,-128 0,-84 0,-141 0,-172 0,-137 0,-230 0,-295 40,-140 356,-212 444,-238 133,-42 142,-137 115,-214 -48,-111 -136,-135 -217,-111 -137,44 -271,127 -366,154 5,-112 -77,-167 -185,-163 -73,-2 -120,2 -179,38 -37,20 -48,71 -50,128 0,265 0,479 0,646zm980 -178l0 -67c0,-53 44,-97 97,-97l828 0c53,0 97,44 97,97l0 67c0,53 -44,97 -97,97l-828 0c-53,0 -97,-44 -97,-97zm1703 -811l0 -86c0,-69 56,-125 125,-125l1217 0c69,0 125,56 125,125l0 86c0,69 -56,125 -125,125l-409 0 0 1074c0,90 -73,163 -163,163l-112 0c-90,0 -163,-73 -163,-163l0 -1074 -370 0c-69,0 -125,-56 -125,-125zm-5597 472c195,0 354,147 354,329 0,182 -158,329 -354,329 -196,0 -354,-147 -354,-329 0,-182 158,-329 354,-329z"/>
  <g id="_1821029320144">
   <path class="fil1" d="M2019 154c94,-45 204,-18 289,35 550,322 1103,640 1656,958 90,51 143,150 136,254 -2,649 0,1298 -4,1947 14,151 -128,232 -239,297 -522,298 -1044,595 -1564,898 -85,51 -198,83 -286,20 -512,-290 -1016,-594 -1529,-883 -129,-77 -310,-161 -310,-336 -7,-599 -1,-1199 -7,-1798 3,-87 -4,-177 20,-263 63,-110 181,-169 287,-231 521,-292 1028,-609 1551,-897z"/>
   <path class="fil2 str1" d="M1566 2128l0 -616 556 -304 576 302 0 599 529 286 0 604 -541 363 -578 -299 -517 290 -556 -285 0 -659 531 -280zm606 374c160,73 352,177 509,255 -3,180 -4,349 -5,526 -158,-80 -348,-181 -504,-265 0,-173 1,-344 0,-516zm-1069 518l1 -530 463 245 -1 535 -463 -251zm515 -910l0 -543 462 250 0 544 -462 -251zm963 -602l-469 -245 -454 249 481 252 442 -256zm561 915l-469 -245 -454 249 481 252 442 -256zm-1077 4l-469 -245 -454 249 481 252 442 -256z"/>
  </g>
 </g>
</svg>
